<svg xmlns="http://www.w3.org/2000/svg" version="1.1" width="3300" height="2000"><g id="Notes"><style>
    text {
      font-family: monospace;
      text-anchor: middle;
    }
    text.emphasis {
      font-weight:bold;
    }
    text.lanchor {
      text-anchor: start;
    }
  </style><rect height="2200" id="artboard" fill="white" width="3300" x="0" y="0"/><line id="" style="fill:none;stroke:black;stroke-width:0.5;" x1="263" x2="3036" y1="292" y2="292"/><text class="lanchor emphasis" transform="matrix(1 0 0 1 263 322)">Weight/Scale Variations</text><text transform="matrix(1 0 0 1 559.711 322)">Ultralight</text><text transform="matrix(1 0 0 1 856.422 322)">Thin</text><text transform="matrix(1 0 0 1 1153.13 322)">Light</text><text transform="matrix(1 0 0 1 1449.84 322)">Regular</text><text transform="matrix(1 0 0 1 1746.56 322)">Medium</text><text transform="matrix(1 0 0 1 2043.27 322)">Semibold</text><text transform="matrix(1 0 0 1 2339.98 322)">Bold</text><text transform="matrix(1 0 0 1 2636.69 322)">Heavy</text><text transform="matrix(1 0 0 1 2933.4 322)">Black</text><text id="template-version" style="text-anchor: end;" transform="matrix(1 0 0 1 3036 1933)">Template v.1.0</text><text class="lanchor" transform="matrix(1 0 0 1 263 726)">Small</text><text class="lanchor" transform="matrix(1 0 0 1 263 1156)">Medium</text><text class="lanchor" transform="matrix(1 0 0 1 263 1586)">Large</text></g><g id="Guides"><g id="H-reference" style="fill:#27AAE1;stroke:none;" transform="matrix(1 0 0 1 339 696)"><path d="M 54.9316 0 L 57.666 0 L 30.5664 -70.459 L 28.0762 -70.459 L 0.976562 0 L 3.66211 0 L 12.9395 -24.4629 L 45.7031 -24.4629 Z M 29.1992 -67.0898 L 29.4434 -67.0898 L 44.8242 -26.709 L 13.8184 -26.709 Z"/></g><line id="Baseline-S" style="fill:none;stroke:#27AAE1;opacity:1;stroke-width:0.577;" x1="263" x2="3036" y1="696" y2="696"/><line id="Capline-S" style="fill:none;stroke:#27AAE1;opacity:1;stroke-width:0.577;" x1="263" x2="3036" y1="625.541" y2="625.541"/><g id="H-reference" style="fill:#27AAE1;stroke:none;" transform="matrix(1 0 0 1 339 1126)"><path d="M 54.9316 0 L 57.666 0 L 30.5664 -70.459 L 28.0762 -70.459 L 0.976562 0 L 3.66211 0 L 12.9395 -24.4629 L 45.7031 -24.4629 Z M 29.1992 -67.0898 L 29.4434 -67.0898 L 44.8242 -26.709 L 13.8184 -26.709 Z"/></g><line id="Baseline-M" style="fill:none;stroke:#27AAE1;opacity:1;stroke-width:0.577;" x1="263" x2="3036" y1="1126" y2="1126"/><line id="Capline-M" style="fill:none;stroke:#27AAE1;opacity:1;stroke-width:0.577;" x1="263" x2="3036" y1="1055.54" y2="1055.54"/><g id="H-reference" style="fill:#27AAE1;stroke:none;" transform="matrix(1 0 0 1 339 1556)"><path d="M 54.9316 0 L 57.666 0 L 30.5664 -70.459 L 28.0762 -70.459 L 0.976562 0 L 3.66211 0 L 12.9395 -24.4629 L 45.7031 -24.4629 Z M 29.1992 -67.0898 L 29.4434 -67.0898 L 44.8242 -26.709 L 13.8184 -26.709 Z"/></g><line id="Baseline-L" style="fill:none;stroke:#27AAE1;opacity:1;stroke-width:0.577;" x1="263" x2="3036" y1="1556" y2="1556"/><line id="Capline-L" style="fill:none;stroke:#27AAE1;opacity:1;stroke-width:0.577;" x1="263" x2="3036" y1="1485.54" y2="1485.54"/><rect height="119.336" id="left-margin" style="fill:darkred;stroke:none;opacity:0.4;" width="12.4512" x="1394.06" y="1030.79"/><rect height="119.336" id="right-margin" style="fill:darkgreen;stroke:none;opacity:0.4;" width="12.4512" x="1502.5112" y="1030.79"/><rect x="1406.5112" y="1045" width="96" height="96" fill="none" stroke="blue" stroke-dasharray="5"/><rect x="1394.06" y="1030.79" width="120.9024" height="119.336" fill="none" stroke="blue"/></g><g id="Symbols"><g id="Bold-L" transform="matrix(1 0 0 1 2266 1556)"><path d="M49.02 32.817500000000024  36.120000000000005 19.756250000000023  91.42875000000001 -35.55249999999998  36.120000000000005 -90.86124999999998  49.02 -103.92249999999999  117.39 -35.55249999999998  49.02 32.817500000000024 Z"/></g><g id="Semibold-L" transform="matrix(1 0 0 1 1970.27 1556)"><path d="M49.02 31.135017500000032  37.8024825 19.756250000000023  93.1112325 -35.55249999999998  37.8024825 -90.86124999999998  49.02 -102.2400175  115.70751750000001 -35.55249999999998  49.02 31.135017500000032 Z"/></g><g id="Medium-L" transform="matrix(1 0 0 1 1674.31 1556)"><path d="M49.02 29.872913750000038  39.06458625 19.756250000000023  94.37333625 -35.55249999999998  39.06458625 -90.86124999999998  49.02 -100.97791374999998  114.44541375000001 -35.55249999999998  49.02 29.872913750000038 Z"/></g><g id="Regular-L" transform="matrix(1 0 0 1 1378.56 1556)"><path d="M49.02 28.94750000000002  39.99 19.756250000000023  95.29875 -35.55249999999998  39.99 -90.86124999999998  49.02 -100.05249999999998  113.52000000000001 -35.55249999999998  49.02 28.94750000000002 Z"/></g><g id="Light-L" transform="matrix(1 0 0 1 1082.77 1556)"><path d="M49.70224875 26.776591250000024  42.28491 19.32200375000002  97.09749375 -35.49041874999999  42.28491 -90.24108249999998  49.70224875 -97.75759  111.96942 -35.49041874999999  49.70224875 26.776591250000024 Z"/></g><g id="Thin-L" transform="matrix(1 0 0 1 787.282 1556)"><path d="M50.384336250000004 24.60616625000003  44.579336250000004 18.88791875000001  98.895915 -35.42849874999999  44.579336250000004 -89.62091499999998  50.384336250000004 -95.46316374999998  110.41900125000001 -35.42849874999999  50.384336250000004 24.60616625000003 Z"/></g><g id="Ultralight-L" transform="matrix(1 0 0 1 491.205 1556)"><path d="M50.79375 23.303750000000008  45.956250000000004 18.627500000000026  99.97500000000001 -35.391249999999985  45.956250000000004 -89.24874999999999  50.79375 -94.08624999999998  109.48875 -35.391249999999985  50.79375 23.303750000000008 Z"/></g><g id="Bold-M" transform="matrix(1 0 0 1 2281.8 1126)"><path d="M40.125 18.77000000000001  27.25 5.89500000000001  68.375 -35.22999999999999  27.25 -76.35499999999999  40.125 -89.22999999999999  94.125 -35.22999999999999  40.125 18.77000000000001 Z"/></g><g id="Semibold-M" transform="matrix(1 0 0 1 1985.97 1126)"><path d="M40.125 17.031000000000006  28.989 5.89500000000001  70.114 -35.22999999999999  28.989 -76.35499999999999  40.125 -87.49099999999999  92.386 -35.22999999999999  40.125 17.031000000000006 Z"/></g><g id="Medium-M" transform="matrix(1 0 0 1 1689.91 1126)"><path d="M40.125 15.726500000000016  30.2935 5.89500000000001  71.4185 -35.22999999999999  30.2935 -76.35499999999999  40.125 -86.1865  91.0815 -35.22999999999999  40.125 15.726500000000016 Z"/></g><g id="Regular-M" transform="matrix(1 0 0 1 1394.06 1126)"><path d="M40.125 14.77000000000001  31.25 5.89500000000001  72.375 -35.22999999999999  31.25 -76.35499999999999  40.125 -85.22999999999999  90.125 -35.22999999999999  40.125 14.77000000000001 Z"/></g><g id="Light-M" transform="matrix(1 0 0 1 1098.18 1126)"><path d="M40.076875 13.039125000000013  32.980875 5.943125000000009  74.154 -35.22999999999999  32.980875 -76.40312499999999  40.076875 -83.49912499999999  88.346 -35.22999999999999  40.076875 13.039125000000013 Z"/></g><g id="Thin-M" transform="matrix(1 0 0 1 802.565 1126)"><path d="M40.028875 11.30850000000001  34.7115 5.991125000000011  75.932625 -35.22999999999999  34.7115 -76.45112499999999  40.028875 -81.76849999999999  86.567375 -35.22999999999999  40.028875 11.30850000000001 Z"/></g><g id="Ultralight-M" transform="matrix(1 0 0 1 506.415 1126)"><path d="M40.0 10.27000000000001  35.75 6.02000000000001  77.0 -35.22999999999999  35.75 -76.47999999999999  40.0 -80.72999999999999  85.5 -35.22999999999999  40.0 10.27000000000001 Z"/></g><g id="Bold-S" transform="matrix(1 0 0 1 2294.23 696)"><path d="M28.404 5.798000000000002  18.5415 -4.064499999999995  49.707 -35.23  18.5415 -66.3955  28.404 -76.258  69.432 -35.23  28.404 5.798000000000002 Z"/></g><g id="Semibold-S" transform="matrix(1 0 0 1 1998.1 696)"><path d="M28.404 4.425929000000011  19.913571 -4.064499999999995  51.079071000000006 -35.23  19.913571 -66.3955  28.404 -74.88592899999999  68.059929 -35.23  28.404 4.425929000000011 Z"/></g><g id="Medium-S" transform="matrix(1 0 0 1 1701.85 696)"><path d="M28.404 3.3966785000000073  20.9428215 -4.064499999999995  52.108321499999995 -35.23  20.9428215 -66.3955  28.404 -73.85667849999999  67.03067850000001 -35.23  28.404 3.3966785000000073 Z"/></g><g id="Regular-S" transform="matrix(1 0 0 1 1405.73 696)"><path d="M28.404 2.64200000000001  21.6975 -4.064499999999995  52.863 -35.23  21.6975 -66.3955  28.404 -73.102  66.276 -35.23  28.404 2.64200000000001 Z"/></g><g id="Light-S" transform="matrix(1 0 0 1 1109.75 696)"><path d="M28.366029375000004 1.2763396250000056  23.063160375000002 -4.0265293749999955  54.266631 -35.23  23.063160375000002 -66.433470625  28.366029375000004 -71.736339625  64.872369 -35.23  28.366029375000004 1.2763396250000056 Z"/></g><g id="Thin-S" transform="matrix(1 0 0 1 814.015 696)"><path d="M28.328157375 -0.08912349999999947  24.4286235 -3.9886573749999883  55.669966125 -35.23  24.4286235 -66.47134262499999  28.328157375 -70.3708765  63.469033875 -35.23  28.328157375 -0.08912349999999947 Z"/></g><g id="Ultralight-S" transform="matrix(1 0 0 1 517.792 696)"><path d="M28.305375 -0.9084999999999894  25.248 -3.965874999999997  56.512125000000005 -35.23  25.248 -66.494125  28.305375 -69.5515  62.626875000000005 -35.23  28.305375 -0.9084999999999894 Z"/></g></g></svg>